<?xml version="1.0" encoding="utf-8"?>
<!-- Generator: Adobe Illustrator 23.1.0, SVG Export Plug-In . SVG Version: 6.00 Build 0)  -->
<svg version="1.1" id="Layer_1" xmlns="http://www.w3.org/2000/svg" xmlns:xlink="http://www.w3.org/1999/xlink" x="0px" y="0px"
	 viewBox="0 0 64 64" style="enable-background:new 0 0 64 64;" xml:space="preserve">
<style type="text/css">
	.st0{fill:#D1D3D4;}
	.st1{fill:#603913;}
	.st2{fill:#A7A9AC;}
	.st3{fill:#C09EC9;}
	.st4{fill:#BCBEC0;}
	.st5{fill:#FFFFFF;}
	.st6{fill:#FBB040;}
	.st7{fill:#F7941D;}
	.st8{fill:#F5ACCC;}
	.st9{fill:#D7DF23;}
	.st10{fill:#A0DAE3;}
	.st11{fill:#00AEEF;}
	.st12{fill:#92278F;}
	.st13{fill:#E6E7E8;}
	.st14{fill:#ED1C24;}
	.st15{fill:#939598;}
	.st16{fill:#C2B59B;}
	.st17{fill:#3C2415;}
	.st18{fill:#C49A6C;}
	.st19{fill:#FDCE8F;}
	.st20{fill:#262262;}
	.st21{fill:#808285;}
	.st22{fill:#231F20;}
	.st23{fill:#BE1E2D;}
	.st24{fill:#FFFAC7;}
	.st25{fill:#27AAE1;}
	.st26{fill:#F1F2F2;}
	.st27{fill:#2BB673;}
	.st28{fill:#58595B;}
	.st29{fill:#00A79D;}
</style>
<g>
	<g>
		<rect x="11.1" y="2" class="st19" width="44.2" height="60"/>
		<path class="st1" d="M55.3,63H11.1c-0.6,0-1-0.4-1-1V2c0-0.6,0.4-1,1-1h44.2c0.6,0,1,0.4,1,1v60C56.3,62.6,55.9,63,55.3,63z
			 M12.1,61h42.2V3H12.1V61z"/>
	</g>
	<g>
		<path class="st1" d="M16.9,59.5c-0.6,0-1-0.4-1-1V5.5c0-0.6,0.4-1,1-1s1,0.4,1,1v52.9C17.9,59,17.5,59.5,16.9,59.5z"/>
	</g>
	<g>
		<g>
			<path class="st20" d="M31.8,22c-0.6-4-2.3-6.4-4.5-6.4c-2.3,0-3.9,2.8-4.5,6.4c-1.1,6.5,3.5,6.3,3.5,9c0,4.6,0,19.2,0,19.2
				c0,0.6,0.5,1,1,1c0.6,0,1-0.5,1-1c0,0,0-15.2,0-19.3C28.3,28.4,32.6,27.8,31.8,22z"/>
		</g>
		<g>
			<path class="st20" d="M41.3,15.5c-0.5,0-0.8,0.4-0.8,0.8v7.8h-1.4v-7.8c0-0.5-0.4-0.8-0.8-0.8c-0.5,0-0.8,0.4-0.8,0.8v7.8H36
				v-7.8c0-0.5-0.4-0.8-0.8-0.8c-0.5,0-0.8,0.4-0.8,0.8v7.8v1.3v0.1h0c0,1.1,0.9,1.8,1.8,2.4c0.7,0.5,1.1,1.2,1.1,2.2
				c0,4.9,0,20,0,20c0,0.6,0.5,1.1,1,1.1c0.6,0,1-0.5,1-1.1c0,0,0-15.8,0-20.2c0-0.8,0.2-1.6,0.9-2c0.9-0.6,1.8-1.3,1.8-2.4h0v-9.2
				C42.1,15.9,41.7,15.5,41.3,15.5z"/>
		</g>
		<g>
			<path class="st20" d="M47.6,15.6c-3.1,0-3.5,16.1-3.5,17.6c0,1.5,0.8,2.7,1.8,2.7h1.4c0,5.2,0,14.3,0,14.3c0,0.6,0.5,1.1,1,1.1
				c0.6,0,1.1-0.5,1.1-1.1V18.3C49.5,16.8,48.6,15.6,47.6,15.6z"/>
		</g>
	</g>
	<g>
		<g>
			<path class="st1" d="M13.9,6.7H8.7c-0.6,0-1-0.4-1-1s0.4-1,1-1h5.2c0.6,0,1,0.4,1,1S14.4,6.7,13.9,6.7z"/>
		</g>
		<g>
			<path class="st1" d="M13.9,10.7H8.7c-0.6,0-1-0.4-1-1s0.4-1,1-1h5.2c0.6,0,1,0.4,1,1S14.4,10.7,13.9,10.7z"/>
		</g>
		<g>
			<path class="st1" d="M13.9,14.8H8.7c-0.6,0-1-0.4-1-1s0.4-1,1-1h5.2c0.6,0,1,0.4,1,1S14.4,14.8,13.9,14.8z"/>
		</g>
		<g>
			<path class="st1" d="M13.9,18.8H8.7c-0.6,0-1-0.4-1-1s0.4-1,1-1h5.2c0.6,0,1,0.4,1,1S14.4,18.8,13.9,18.8z"/>
		</g>
		<g>
			<path class="st1" d="M13.9,22.9H8.7c-0.6,0-1-0.4-1-1s0.4-1,1-1h5.2c0.6,0,1,0.4,1,1S14.4,22.9,13.9,22.9z"/>
		</g>
		<g>
			<path class="st1" d="M13.9,26.9H8.7c-0.6,0-1-0.4-1-1s0.4-1,1-1h5.2c0.6,0,1,0.4,1,1S14.4,26.9,13.9,26.9z"/>
		</g>
		<g>
			<path class="st1" d="M13.9,31H8.7c-0.6,0-1-0.4-1-1s0.4-1,1-1h5.2c0.6,0,1,0.4,1,1S14.4,31,13.9,31z"/>
		</g>
		<g>
			<path class="st1" d="M13.9,35H8.7c-0.6,0-1-0.4-1-1s0.4-1,1-1h5.2c0.6,0,1,0.4,1,1S14.4,35,13.9,35z"/>
		</g>
		<g>
			<path class="st1" d="M13.9,39.1H8.7c-0.6,0-1-0.4-1-1s0.4-1,1-1h5.2c0.6,0,1,0.4,1,1S14.4,39.1,13.9,39.1z"/>
		</g>
		<g>
			<path class="st1" d="M13.9,43.1H8.7c-0.6,0-1-0.4-1-1s0.4-1,1-1h5.2c0.6,0,1,0.4,1,1S14.4,43.1,13.9,43.1z"/>
		</g>
		<g>
			<path class="st1" d="M13.9,47.2H8.7c-0.6,0-1-0.4-1-1s0.4-1,1-1h5.2c0.6,0,1,0.4,1,1S14.4,47.2,13.9,47.2z"/>
		</g>
		<g>
			<path class="st1" d="M13.9,51.2H8.7c-0.6,0-1-0.4-1-1s0.4-1,1-1h5.2c0.6,0,1,0.4,1,1S14.4,51.2,13.9,51.2z"/>
		</g>
		<g>
			<path class="st1" d="M13.9,55.3H8.7c-0.6,0-1-0.4-1-1s0.4-1,1-1h5.2c0.6,0,1,0.4,1,1S14.4,55.3,13.9,55.3z"/>
		</g>
		<g>
			<path class="st1" d="M13.9,59.3H8.7c-0.6,0-1-0.4-1-1s0.4-1,1-1h5.2c0.6,0,1,0.4,1,1S14.4,59.3,13.9,59.3z"/>
		</g>
	</g>
</g>
</svg>
