<?xml version="1.0" encoding="UTF-8" standalone="no"?>
<svg
   xmlns:dc="http://purl.org/dc/elements/1.1/"
   xmlns:cc="http://creativecommons.org/ns#"
   xmlns:rdf="http://www.w3.org/1999/02/22-rdf-syntax-ns#"
   xmlns:svg="http://www.w3.org/2000/svg"
   xmlns="http://www.w3.org/2000/svg"
   version="1.1"
   id="svg4244"
   viewBox="0 0 32 32.000001"
   height="32"
   width="32">
  <defs
     id="defs4246" />
  <metadata
     id="metadata4249">
    <rdf:RDF>
      <cc:Work
         rdf:about="">
        <dc:format>image/svg+xml</dc:format>
        <dc:type
           rdf:resource="http://purl.org/dc/dcmitype/StillImage" />
        <dc:title />
      </cc:Work>
    </rdf:RDF>
  </metadata>
  <g
     transform="translate(0,-1020.3622)"
     id="layer1">
    <g
       transform="translate(-4.2590071,-3.0333347)"
       id="g4783">
      <g
         id="g7801">
        <path
           style="fill:#ff9a00;fill-opacity:1;stroke:none;stroke-width:1;stroke-linecap:round;stroke-linejoin:round;stroke-opacity:1"
           d="m 14.259007,1025.3955 2,0 c 0.277,0 0.5,0.223 0.5,0.5 l -0.3,1 c -0.07959,0.2653 -0.223,0.5 -0.5,0.5 l -1.4,0 c -0.277,0 -0.420405,-0.2347 -0.5,-0.5 l -0.3,-1 c 0,-0.277 0.223,-0.5 0.5,-0.5 z"
           id="rect5588" />
        <path
           style="fill:#2a292e;fill-opacity:1;stroke:none;stroke-width:1;stroke-linecap:round;stroke-linejoin:round;stroke-opacity:1"
           d="m 13.759007,1026.3954 0,7 c 0,0.8887 -0.389896,1.6762 -1,2.2246 l 0,1.7754 1,0 3,0 1,0 0,-1.7754 c -0.610104,-0.5484 -1,-1.3359 -1,-2.2246 l 0,-7 -3,0 z"
           id="rect5581" />
        <path
           style="fill:#2a292e;fill-opacity:1;stroke:none;stroke-width:1;stroke-linecap:round;stroke-linejoin:round;stroke-opacity:1"
           d="m 13.59236,1035.3954 3.333295,0 c 1.846677,0 3.333352,1.338 3.333352,3 l 0,11 c 0,1.662 -1.486675,3 -3.333352,3 l -3.333295,0 c -1.846677,0 -3.333353,-1.338 -3.333353,-3 l 0,-11 c 0,-1.662 1.486676,-3 3.333353,-3 z"
           id="rect5573" />
        <path
           style="fill:#2a292e;fill-opacity:1;stroke:none;stroke-width:1;stroke-linecap:round;stroke-linejoin:round;stroke-opacity:1"
           d="m 11.370138,1043.3954 7.777739,0 c 0.615566,0 1.11113,0.446 1.11113,1 l 0,9.0001 c 0,0.554 -0.495564,1 -1.11113,1 l -7.777739,0 c -0.615566,0 -1.111131,-0.446 -1.111131,-1 l 0,-9.0001 c 0,-0.554 0.495565,-1 1.111131,-1 z"
           id="rect5575" />
        <path
           style="fill:#2a292e;fill-opacity:1;stroke:none;stroke-width:1;stroke-linecap:round;stroke-linejoin:round;stroke-opacity:1"
           d="m 13.759007,1026.3955 3,0 c 0.277,0 0.5,0.223 0.5,0.5 l 0,1 c 0,0.277 -0.223,0.5 -0.5,0.5 l -3,0 c -0.277,0 -0.5,-0.223 -0.5,-0.5 l 0,-1 c 0,-0.277 0.223,-0.5 0.5,-0.5 z"
           id="rect5579" />
        <path
           style="fill:#17161b;fill-opacity:1;stroke:none;stroke-width:1;stroke-linecap:round;stroke-linejoin:round;stroke-opacity:1"
           d="m 13.759007,1028.3954 0,1 3,0 0,-1 -3,0 z"
           id="path5592" />
        <path
           id="path5597"
           d="m 13.759007,1026.3954 0,3 3,0 0,-3 z"
           style="fill:#ffb74e;fill-opacity:1;stroke:none;stroke-width:1;stroke-linecap:round;stroke-linejoin:round;stroke-opacity:1" />
        <path
           style="fill:#ffb74e;fill-opacity:1;stroke:none;stroke-width:1;stroke-linecap:round;stroke-linejoin:round;stroke-opacity:1"
           d="m 13.759007,1026.3955 3,0 c 0.277,0 0.5,0.223 0.5,0.5 l 0,1 c 0,0.277 -0.223,0.5 -0.5,0.5 l -3,0 c -0.277,0 -0.5,-0.223 -0.5,-0.5 l 0,-1 c 0,-0.277 0.223,-0.5 0.5,-0.5 z"
           id="rect5599" />
        <path
           style="fill:#ffb74e;fill-opacity:1;stroke:none;stroke-width:1;stroke-linecap:round;stroke-linejoin:round;stroke-opacity:1"
           d="m 14.759025,1028.3954 0.999965,0 c 0.55401,0 1.000017,0.446 1.000017,1 l 0,3 c 0,0.554 -0.446007,1 -1.000017,1 l -0.999965,0 c -0.55401,0 -1.000018,-0.446 -1.000018,-1 l 0,-3 c 0,-0.554 0.446008,-1 1.000018,-1 z"
           id="rect5601" />
        <path
           style="fill:#c7c6ce;fill-opacity:1;stroke:none;stroke-width:1;stroke-linecap:round;stroke-linejoin:round;stroke-opacity:1"
           d="m 15.259007,1039.3954 c 1.662,0 3,1.338 3,3 l 0,6 c 0,1.662 -1.338,3 -3,3 -1.662,0 -3,-1.338 -3,-3 l 0,-6 c 0,-1.662 1.338,-3 3,-3 z"
           id="rect5603" />
        <path
           style="color:#000000;font-style:normal;font-variant:normal;font-weight:normal;font-stretch:normal;font-size:medium;line-height:normal;font-family:sans-serif;text-indent:0;text-align:start;text-decoration:none;text-decoration-line:none;text-decoration-style:solid;text-decoration-color:#000000;letter-spacing:normal;word-spacing:normal;text-transform:none;direction:ltr;block-progression:tb;writing-mode:lr-tb;baseline-shift:baseline;text-anchor:start;white-space:normal;clip-rule:nonzero;display:inline;overflow:visible;visibility:visible;opacity:1;isolation:auto;mix-blend-mode:normal;color-interpolation:sRGB;color-interpolation-filters:linearRGB;solid-color:#000000;solid-opacity:1;fill:#8b8891;fill-opacity:1;fill-rule:evenodd;stroke:none;stroke-width:1px;stroke-linecap:round;stroke-linejoin:round;stroke-miterlimit:4;stroke-dasharray:none;stroke-dashoffset:0;stroke-opacity:1;color-rendering:auto;image-rendering:auto;shape-rendering:auto;text-rendering:auto;enable-background:accumulate"
           d="m 13.765625,1042.3945 a 0.50005,0.50005 0 1 0 0,1 l 2.986328,0 a 0.50005,0.50005 0 1 0 0,-1 l -2.986328,0 z"
           id="path5605" />
        <path
           style="color:#000000;font-style:normal;font-variant:normal;font-weight:normal;font-stretch:normal;font-size:medium;line-height:normal;font-family:sans-serif;text-indent:0;text-align:start;text-decoration:none;text-decoration-line:none;text-decoration-style:solid;text-decoration-color:#000000;letter-spacing:normal;word-spacing:normal;text-transform:none;direction:ltr;block-progression:tb;writing-mode:lr-tb;baseline-shift:baseline;text-anchor:start;white-space:normal;clip-rule:nonzero;display:inline;overflow:visible;visibility:visible;opacity:1;isolation:auto;mix-blend-mode:normal;color-interpolation:sRGB;color-interpolation-filters:linearRGB;solid-color:#000000;solid-opacity:1;fill:#8b8891;fill-opacity:1;fill-rule:evenodd;stroke:none;stroke-width:1px;stroke-linecap:round;stroke-linejoin:round;stroke-miterlimit:4;stroke-dasharray:none;stroke-dashoffset:0;stroke-opacity:1;color-rendering:auto;image-rendering:auto;shape-rendering:auto;text-rendering:auto;enable-background:accumulate"
           d="m 13.765625,1047.3945 a 0.50005,0.50005 0 1 0 0,1 l 2.986328,0 a 0.50005,0.50005 0 1 0 0,-1 l -2.986328,0 z"
           id="path5607" />
        <path
           style="fill:#c7c6ce;fill-opacity:1;stroke:none;stroke-width:1;stroke-linecap:round;stroke-linejoin:round;stroke-opacity:1"
           d="m 23.259007,1033.3954 6,0 c 0.554,0 1,0.446 1,1 l 0,6 c 0,0.554 -0.446,1 -1,1 l -6,0 c -0.554,0 -1,-0.446 -1,-1 l 0,-6 c 0,-0.554 0.446,-1 1,-1 z"
           id="rect5623" />
        <path
           style="fill:#c7c6ce;fill-opacity:1;stroke:none;stroke-width:1;stroke-linecap:round;stroke-linejoin:round;stroke-opacity:1"
           d="m 26.259007,1035.3954 c 2.216,0 4,1.784 4,4 l 0,3 c 0,2.216 -1.784,4 -4,4 -2.216,0 -4,-1.784 -4,-4 l 0,-3 c 0,-2.216 1.784,-4 4,-4 z"
           id="rect5625" />
        <path
           style="fill:#c7c6ce;fill-opacity:1;stroke:none;stroke-width:1;stroke-linecap:round;stroke-linejoin:round;stroke-opacity:1"
           d="m 25.759007,1045.3954 1,0 0,8 -1,0 z"
           id="rect5627" />
        <path
           style="fill:#c7c6ce;fill-opacity:1;stroke:none;stroke-width:1;stroke-linecap:round;stroke-linejoin:round;stroke-opacity:1"
           d="m 22.75899,1053.3954 3.000017,0 1,0 3.000017,0 c 0.277236,0 0.499983,0.223 0.499983,0.5 0,0.277 -0.222992,0.4999 -0.499983,0.4999 l -7.000034,0 c -0.276991,0 -0.499983,-0.2229 -0.499983,-0.4999 0,-0.277 0.218204,-0.4436 0.499983,-0.5 z"
           id="rect5629" />
        <path
           style="fill:#c7c6ce;fill-opacity:1;stroke:none;stroke-width:1;stroke-linecap:round;stroke-linejoin:round;stroke-opacity:1"
           d="m 23.259007,1033.3954 c -0.554,0 -1,0.446 -1,1 l 0,5 0,1 0,2 c 0,2.216 1.784,4 4,4 2.216,0 4,-1.784 4,-4 l 0,-2 0,-1 0,-5 c 0,-0.554 -0.446,-1 -1,-1 l -6,0 z"
           id="rect5635" />
        <path
           id="path5640"
           d="m 24.009007,1035.4038 c -0.4155,0 -0.75,0.3345 -0.75,0.75 l 0,3.9916 0,0.75 0,1.5 c 0,1.662 1.338,3 3,3 1.662,0 3,-1.338 3,-3 l 0,-1.5 0,-0.75 0,-3.9916 c 0,-0.4155 -0.3345,-0.75 -0.75,-0.75 z"
           style="fill:#ffffff;fill-opacity:1;stroke:none;stroke-width:1;stroke-linecap:round;stroke-linejoin:round;stroke-opacity:1" />
        <path
           style="fill:#ff9a00;fill-opacity:1;stroke:none;stroke-width:1;stroke-linecap:round;stroke-linejoin:round;stroke-opacity:1"
           d="m 23.259007,1037.3954 0,2.75 0,0.75 0,1.5 c 0,1.662 1.338,3 3,3 1.662,0 3,-1.338 3,-3 l 0,-1.5 0,-0.75 0,-2.75 z"
           id="path5642" />
        <path
           style="fill:#ffb74e;fill-opacity:1;stroke:none;stroke-width:1;stroke-linecap:round;stroke-linejoin:round;stroke-opacity:1"
           d="m 24.759007,1039.8954 a 0.5,0.49997619 0 0 1 -0.5,0.5 0.5,0.49997619 0 0 1 -0.5,-0.5 0.5,0.49997619 0 0 1 0.5,-0.5 0.5,0.49997619 0 0 1 0.5,0.5 z"
           id="path5644" />
        <path
           style="fill:#ffb74e;fill-opacity:1;stroke:none;stroke-width:1;stroke-linecap:round;stroke-linejoin:round;stroke-opacity:1"
           d="m 28.259007,1040.8954 a 0.5,0.49997619 0 0 1 -0.5,0.5 0.5,0.49997619 0 0 1 -0.5,-0.5 0.5,0.49997619 0 0 1 0.5,-0.5 0.5,0.49997619 0 0 1 0.5,0.5 z"
           id="ellipse5646" />
        <path
           style="fill:#ffb74e;fill-opacity:1;stroke:none;stroke-width:1;stroke-linecap:round;stroke-linejoin:round;stroke-opacity:1"
           d="m 25.759007,1042.8954 a 0.5,0.49997619 0 0 1 -0.5,0.5 0.5,0.49997619 0 0 1 -0.5,-0.5 0.5,0.49997619 0 0 1 0.5,-0.5 0.5,0.49997619 0 0 1 0.5,0.5 z"
           id="ellipse5648" />
        <path
           style="fill:#ffb74e;fill-opacity:1;stroke:none;stroke-width:1;stroke-linecap:round;stroke-linejoin:round;stroke-opacity:1"
           d="m 28.259007,1043.8954 a 0.5,0.49997619 0 0 1 -0.5,0.5 0.5,0.49997619 0 0 1 -0.5,-0.5 0.5,0.49997619 0 0 1 0.5,-0.5 0.5,0.49997619 0 0 1 0.5,0.5 z"
           id="ellipse5650" />
        <path
           style="fill:#ffb74e;fill-opacity:1;stroke:none;stroke-width:1;stroke-linecap:round;stroke-linejoin:round;stroke-opacity:1"
           d="m 27.259007,1038.8954 a 0.5,0.49997619 0 0 1 -0.5,0.5 0.5,0.49997619 0 0 1 -0.5,-0.5 0.5,0.49997619 0 0 1 0.5,-0.5 0.5,0.49997619 0 0 1 0.5,0.5 z"
           id="ellipse5652" />
        <path
           style="fill:#c7c6ce;fill-opacity:1;stroke:none;stroke-width:1;stroke-linecap:round;stroke-linejoin:round;stroke-opacity:1"
           d="m 25.759007,1052.3954 c 5e-6,0.5523 -0.447713,1 -1,1 l 0,1 2,0 0,-2 z"
           id="rect5656" />
        <path
           id="path5661"
           d="m 26.759007,1052.3954 c -5e-6,0.5523 0.447713,1 1,1 l 0,1 -2,0 0,-2 z"
           style="fill:#c7c6ce;fill-opacity:1;stroke:none;stroke-width:1;stroke-linecap:round;stroke-linejoin:round;stroke-opacity:1" />
      </g>
    </g>
  </g>
</svg>
